<svg 
	xmlns="http://www.w3.org/2000/svg" 
	viewBox="0 0 290 254" 
	preserveAspectRatio="xMinYMin meet">
	<style>
		@media screen and (max-width: 64px) {
            #catface {
            	display: none;
            }		
		}        
    </style>
    <path d="M294.916 127.831c-1.525-.92-14.834-4.161-23.839-5.789-11.996-2.17-24.51-3.602-34.645-3.996l-1.801-.066c.397-.971.732-1.628.824-1.727.215-.197.396-1.003.427-1.809 0-.444.184-1.875.458-3.766 2.748.098 6.38.197 10.378.213 15.385.131 31.439 1.48 42.489 3.569 6.563 1.25 8.729 1.217 3.876-.065-4.914-1.283-19.475-3.158-31.073-3.98-7.783-.576-18.955-.79-25.548-.674.214-1.217.428-2.599.642-3.997.945-5.411 1.252-10.87 1.282-21.725 0-16.84-.824-21.462-5.922-32.596-2.076-4.556-4.427-8.42-7.234-11.907 2.472-7.861 2.411-20.032-.152-30.689-2.106-8.766-2.87-9.325-10.226-7.631-6.227 1.431-11.233 3.371-17.643 6.858-3.021 1.645-7.203 4.21-10.256 6.233-7.906-2.994-16.057-4.983-24.785-6.052-8.852-1.069-30.524-.477-38.215 1.052-7.51 1.497-14.286 3.338-20.42 5.51-3.052-2.039-7.508-4.786-10.684-6.513-6.44-3.486-11.416-5.427-17.703-6.857-7.326-1.694-8.089-1.119-10.195 7.631-2.595 10.805-2.625 23.189-.031 31.017.275.905.458 1.53.549 2.023-10.438 14.143-13.827 29.964-11.568 52.051.58 5.756 1.496 11.036 2.778 15.871-6.654-.033-16.117.23-22.955.69-11.629.839-26.189 2.697-31.103 3.981-4.822 1.266-2.686 1.315 3.908.082 11.019-2.089 27.105-3.454 42.488-3.569 2.9-.016 5.586-.082 7.936-.148.702 2.566 1.497 5 2.412 7.318h-.091c-10.134.378-22.617 1.81-34.644 3.997-9.004 1.627-22.313 4.884-23.871 5.821-1.618.97-.304.757 6.686-1.151 12.727-3.47 29.302-6.135 49.784-7.977l2.289-.23c4.426 11.019 11.203 19.423 20.787 25.985 5.86 4.013 15.231 8.141 19.962 8.798 1.313.164 5.098 1.003 8.424 1.842 3.327.838 9.829 2.104 14.438 2.829h.122l-.246.181c-5.617 3.125-9.249 8.009-11.69 15.69-1.099.361-2.473.855-3.969 1.397-5.28 1.94-7.355 2.335-12.697 2.385-5.556.033-6.898-.214-10.194-1.907-4.854-2.418-9.341-6.875-12.333-12.203-5.036-8.897-13.674-15.196-20.909-15.196-6.166 0-7.326 2.697-2.868 6.627 6.714 5.92 11.72 11.957 13.796 16.561 1.16 2.599 2.93 6.596 3.968 8.881 1.099 2.451 3.418 5.773 5.646 8.059 5.22 5.378 10.256 7.943 17.765 9.145 5.067.806 6.289.806 12.241-.017 2.868-.378 5.28-.821 7.478-1.365v9.21c0 19.028-.213 25.162-.915 26.938-1.313 3.404-4.274 6.907-7.174 8.486-2.869 1.578-3.755 3.306-2.533 4.901.672.871 1.953 1.02 6.289.724 8.21-.56 14.009-3.832 16.971-9.605.977-1.858 1.19-5.591 1.496-24.981.305-21.051.458-23.09 1.709-26.083.794-1.793 1.893-3.733 2.503-4.26 1.038-.938 1.128.905 1.128 26.084-.03 27.777-.274 31.132-2.868 36.478-.581 1.217-1.68 2.795-2.442 3.552-1.344 1.333-1.924 4.72-.977 5.757 1.556 1.66 9.309-.954 13.551-4.557 7.234-6.167 8.09-11.266 8.15-48.071l.031-21.61 2.197.23 2.167.214.366 28.255c.428 31.806.488 32.267 5.494 38.4 2.838 3.471 5.708 5.395 10.409 6.892 6.227 2.022 8.119-1.103 3.908-6.514-4.549-5.903-4.793-8.156-4.519-43.055.151-22.367.151-22.367 1.496-21.067 2.808 2.763 3.356 7.285 3.356 28.271 0 26.066.702 28.534 9.25 33.09 3.967 2.104 5.096 2.352 10.195 2.384 5.463.018 5.798-.065 5.981-1.595.184-1.25-.488-2.089-3.052-3.75-3.328-2.22-5.616-5.032-7.082-8.602-.549-1.364-.916-10.328-1.16-28.796-.366-25.788-.459-26.956-1.923-31.002-2.015-5.427-5.098-9.719-8.974-12.564-1.008-.724-2.045-1.315-3.358-1.743 1.618-.181 3.175-.362 4.702-.609 15.719-2.253 24.021-4.127 30.705-6.907 14.103-5.838 23.656-15.575 28.815-29.357.457-1.233.916-2.385 1.312-3.322l3.998.346c20.513 1.875 37.057 4.539 49.785 8.009 6.995 1.907 8.308 2.138 6.69 1.134z"/>
    <path id="catface" d="M210.946 120.713c-2.35 5.51-8.853 12.614-14.103 15.394-5.157 2.746-13.277 4.852-22.494 5.855-6.288.691-41.391.904-47.16.279-19.168-2.022-29.913-6.002-37.85-13.963-7.508-7.565-10.988-17.844-10.377-30.475.365-7.927 2.137-12.894 6.777-18.929 4.211-5.494 8.636-8.882 13.856-10.608 4.396-1.447 17.794-1.579 35.835-.329 7.967.559 14.559.559 22.527 0 18.861-1.283 31.438-1.135 36.109.411 7.293 2.434 13.948 8.996 17.946 17.713 1.802 3.914 2.168 5.575 2.411 11.594.369 8.306-.943 17.121-3.477 23.058z" fill="#fff"/>
    <path d="M152.096 126.186c-.245.806-1.343 1.99-2.472 2.631-2.869 1.579-4.914 1.036-7.937-1.94-1.892-1.81-2.746-2.779-3.296-.872-.55 1.776 2.809 5.313 5.373 6.414 2.35 1.003 4.029 1.037 6.594-.115 2.563-1.135 4.76-4.21 4.76-6.2 0-1.859-2.472-1.776-3.022.082z"/>
    <path d="M115.834 86.074c-10.745-2.023-16.879 17.778-8.639 27.893 3.908 4.786 7.387 5.575 11.721 2.664 4.03-2.697 6.198-7.763 6.198-14.308 0-8.75-3.694-15.164-9.28-16.249z"/>
    <path d="M180.972 87.258c-10.744-2.023-16.88 17.762-8.638 27.876 3.906 4.802 7.356 5.591 11.721 2.664 3.998-2.697 6.196-7.763 6.196-14.308 0-8.716-3.694-15.163-9.279-16.232z"/>
</svg>